@startuml
class "RandomGeneratorFactory" as C_0006098685048331150840
class C_0006098685048331150840 {
+RandomGeneratorFactory(Type _type) : void
..
+generateRandomGenerator(int seed = 1) : RandomGenerator *
+getName() const : std::string
+isPseudoRandom() const : bool
+isThreadSafe() const : bool
__
}
class "NetworkState" as C_0005946925854321740463
class C_0005946925854321740463 {
+NetworkState(const NetworkState_Impl & _state) : void
+NetworkState(const NetworkState & _state) : void
+NetworkState() : void
..
+operator=(const NetworkState & _state) : NetworkState &
..
+operator&(const NetworkState & mask) const : NetworkState
..
+applyMask(const NetworkState & mask, std::map<unsigned int,unsigned int> &) const : NetworkState
+computeNodeState(const Node * node, NodeState & node_state) : bool
+display(std::ostream & os, const Network * network) const : void
+displayJSON(std::ostream & os, const Network * network, const std::string & sep = " -- ") const : void
+displayOneLine(std::ostream & os, const Network * network, const std::string & sep = " -- ") const : void
+flipState(const Node * node) : void
+getName(const Network * network, const std::string & sep = " -- ") const : std::string
+getNetworkStates() const : std::set<NetworkState_Impl> *
+getNodeState(const Node * node) const : NodeState
+getState() const : NetworkState_Impl
{static} +getState(Node * node, const NetworkState_Impl & state) : NodeState
+hamming(Network * network, const NetworkState_Impl & state) const : unsigned int
+hamming(Network * network, const NetworkState & state) const : unsigned int
{static} +isPopState() : bool
{static} +nodeBit(NodeIndex node_index) : NetworkState_Impl
+reset() : void
+set() : void
+setNodeState(const Node * node, NodeState node_state) : void
__
}
class "MaBEstEngine" as C_0007244117860887218709
class C_0007244117860887218709 {
+MaBEstEngine(Network * network, RunConfig * runconfig) : void
+~MaBEstEngine() : void
..
+displayRunStats(std::ostream & os, time_t start_time, time_t end_time) const : void
+run(std::ostream * output_traj = __null) : void
__
{static} +VERSION : const std::string
}
class "Cumulator<S>" as C_0004678350403530761664
class C_0004678350403530761664 {
+Cumulator(RunConfig * runconfig, double time_tick, double max_time, unsigned int sample_count, unsigned int statdist_trajcount) : void
..
+cumul(const S & network_state, double tm, double TH) : void
+cumulEmpty(double tm) : void
+displayProbTraj(unsigned int _refnode_count, ProbTrajDisplayer<S> * displayer) const : void
+displayStatDist(StatDistDisplayer * displayer) const : void
+epilogue(Network * network, const NetworkState & reference_state) : void
+getFinalTime() const : double
+getLastStates() const : std::vector<S>
+getMaxTickIndex() const : int
+getOutputMask() const : S
+getSampleCount() const : unsigned int
+getSimpleLastStates() const : std::set<NetworkState_Impl>
+getSimpleStates() const : std::set<NetworkState_Impl>
+getStates() const : std::set<S>
+getVariablesTimecourse(std::map<std::string,Expression *> variables) const : std::map<std::string,std::vector<double>>
{static} +mergePairOfCumulators(Cumulator<S> * cumulator_1, Cumulator<S> * cumulator_2) : void
+next() : void
+rewind() : void
+setOutputMask(const S & _output_mask) : void
+setRefnodeMask(const NetworkState_Impl & _refnode_mask) : void
+trajectoryEpilogue() : void
__
}
class "ObservedGraph" as C_0009815437103180111825
class C_0009815437103180111825 {
+ObservedGraph(const Network * network) : void
..
+addFirstTransition(NetworkState origin_state) : void
+addTransition(NetworkState destination_state, double time) : void
+display(std::ostream * output_observed_graph, std::ostream * output_observed_durations, const Network * network) const : void
+epilogue() : void
+getCounts() const : const std::map<NetworkState_Impl,std::map<NetworkState_Impl,unsigned int>> &
+getDurations() const : const std::map<NetworkState_Impl,std::map<NetworkState_Impl,double>> &
+getStates() const : std::vector<NetworkState_Impl>
+init(unsigned int count = 0, double duration = 0.0) : void
+mergePairOfObservedGraph(const ObservedGraph * observed_graph_2) : void
+size() const : size_t
__
}
class "ProbTrajEngine" as C_0004259290089505017171
class C_0004259290089505017171 {
+ProbTrajEngine(Network * network, RunConfig * runconfig) : void
..
#applySchedule(RandomGenerator * random_generator, NetworkState & network_state, std::vector<double> & times, double time) : void
#buildSchedule() : void
+display(ProbTrajDisplayer<NetworkState> * probtraj_displayer, StatDistDisplayer * statdist_displayer, FixedPointDisplayer * fp_displayer) const : void
+displayObservedGraph(std::ostream * output_observed_graph, std::ostream * output_observed_durations) : void
+displayProbTraj(ProbTrajDisplayer<NetworkState> * displayer) const : void
+displayStatDist(StatDistDisplayer * output_statdist) const : void
+getFinalTime() const : double
+getMaxTickIndex() const : int
+getMergedCumulator() : Cumulator<NetworkState> *
{static} #mergeResults(std::vector<Cumulator<NetworkState> *> & cumulator_v, std::vector<FixedPoints *> & fixpoint_map_v, std::vector<ObservedGraph *> & observed_graph_v) : void
{static} #threadMergeWrapper(void * arg) : void *
__
#cumulator_v : std::vector<Cumulator<NetworkState> *>
#merged_cumulator : Cumulator<NetworkState> *
#observed_graph : ObservedGraph *
#observed_graph_v : std::vector<ObservedGraph *>
#schedule : std::map<double,std::map<Node *,Expression *> *>
#schedule_times : std::vector<double>
}
class "ArgWrapper" as C_0005624061774024450236
class C_0005624061774024450236 {
+ArgWrapper(MaBEstEngine * mabest, unsigned int start_count_thread, unsigned int sample_count_thread, Cumulator<NetworkState> * cumulator, RandomGeneratorFactory * randgen_factory, long long * elapsed_time, int seed, FixedPoints * fixpoint_map, ObservedGraph * observed_graph, std::ostream * output_traj) : void
__
+cumulator : Cumulator<NetworkState> *
+elapsed_time : long long *
+fixpoint_map : FixedPoints *
+mabest : MaBEstEngine *
+observed_graph : ObservedGraph *
+output_traj : std::ostream *
+randgen_factory : RandomGeneratorFactory *
+sample_count_thread : unsigned int
+seed : int
+start_count_thread : unsigned int
}
C_0007244117860887218709 ..> C_0004678350403530761664
C_0007244117860887218709 ..> C_0005946925854321740463
C_0007244117860887218709 ..> C_0006098685048331150840
C_0007244117860887218709 ..> C_0009815437103180111825
C_0007244117860887218709 --> C_0005624061774024450236 : -arg_wrapper_v
C_0004259290089505017171 <|-- C_0007244117860887218709
C_0004678350403530761664 o-- C_0005946925854321740463 : -refnode_mask
C_0009815437103180111825 ..> C_0005946925854321740463
C_0004259290089505017171 --> C_0009815437103180111825 : #observed_graph
C_0004259290089505017171 --> C_0009815437103180111825 : #observed_graph_v
C_0004259290089505017171 --> C_0005946925854321740463 : #merged_cumulator
C_0004259290089505017171 --> C_0004678350403530761664 : #merged_cumulator
C_0004259290089505017171 --> C_0004678350403530761664 : #cumulator_v
C_0004259290089505017171 --> C_0005946925854321740463 : #cumulator_v
C_0005624061774024450236 --> C_0007244117860887218709 : +mabest
C_0005624061774024450236 --> C_0005946925854321740463 : +cumulator
C_0005624061774024450236 --> C_0004678350403530761664 : +cumulator
C_0005624061774024450236 --> C_0006098685048331150840 : +randgen_factory
C_0005624061774024450236 --> C_0009815437103180111825 : +observed_graph

'Generated with clang-uml, version 0.6.2-27-g4e76f03
'LLVM version Ubuntu clang version 18.1.3 (1ubuntu1)
@enduml
